<svg width="17" height="17" viewBox="0 0 17 17" fill="none" xmlns="http://www.w3.org/2000/svg">
<path d="M16.4698 3.1046C16.4461 2.98039 16.3264 2.89893 16.2018 2.92268L14.7168 3.20682C14.3105 3.28477 13.9644 3.53797 13.7672 3.902L13.7603 3.91476C13.3439 4.68231 12.7492 5.35853 12.0403 5.87034C11.799 6.04462 11.5699 6.23972 11.3593 6.45022L9.2119 8.59742C8.94019 8.80369 8.55661 8.77829 8.31443 8.53611C8.18529 8.40696 8.11415 8.23519 8.11415 8.05245C8.11415 7.86947 8.18529 7.69759 8.31443 7.56845L9.86561 6.01724C10.394 5.48887 10.5155 4.67329 10.1611 4.03396C9.86987 3.50859 9.31676 3.18223 8.71764 3.18223C8.68529 3.18223 8.53357 3.19023 8.53357 3.19023C8.13219 3.21528 7.75442 3.38579 7.46985 3.67036L6.46699 4.67322C6.22929 4.91089 6.09328 5.22685 6.08401 5.5629L6.06484 6.2591L5.03707 7.28687L5.15222 4.45842C5.1562 4.35676 5.19736 4.26053 5.26825 4.18745L8.58441 0.764241C8.78251 0.566776 9.04566 0.458072 9.32561 0.458072H13.3263C13.4528 0.458072 13.5553 0.355535 13.5553 0.229036C13.5553 0.102538 13.4528 0 13.3263 0H9.32554C8.92265 0 8.54393 0.156837 8.25918 0.441582C8.25834 0.442427 8.25745 0.443308 8.25661 0.444189L4.93925 3.8687C4.78974 4.02286 4.70278 4.22596 4.69443 4.44024L4.55909 7.76482L0.06709 12.2568C0.0241369 12.2997 0 12.358 0 12.4187C0 12.4795 0.0241369 12.5377 0.06709 12.5807L3.85933 16.3729C3.90404 16.4176 3.96268 16.44 4.02127 16.44C4.07987 16.44 4.13851 16.4176 4.18322 16.3729L11.9775 8.5786C12.067 8.48914 12.067 8.34414 11.9775 8.25471L11.09 7.36721L11.6832 6.77415C11.8765 6.58084 12.0869 6.4017 12.3084 6.24169C13.0726 5.68989 13.7139 4.96078 14.1633 4.13259L14.1702 4.11976C14.3015 3.87748 14.5322 3.70866 14.803 3.65672L16.288 3.37261C16.4121 3.34882 16.4936 3.22885 16.4698 3.1046ZM7.99047 7.24452C7.77479 7.4602 7.65604 7.74709 7.65604 8.05245C7.65604 8.35756 7.77482 8.64435 7.99047 8.86C8.21211 9.08163 8.50471 9.1945 8.79865 9.1945C9.04738 9.1945 9.29707 9.11366 9.50535 8.9495C9.51243 8.94393 9.51916 8.93794 9.52554 8.93156L10.1856 8.27155L10.4601 8.54608L4.15066 14.8555L1.58433 12.2892L7.89378 5.97971L8.57455 6.66044L7.99047 7.24452ZM7.79371 3.99421C7.99931 3.78864 8.27218 3.66542 8.56144 3.64738C8.56144 3.64738 8.69407 3.64026 8.71761 3.64026C9.15031 3.64026 9.54989 3.87621 9.7605 4.25602C10.0163 4.71762 9.92639 5.30863 9.54168 5.69331L9.47892 5.75607L8.18533 4.4625C8.0959 4.37307 7.95086 4.37307 7.86143 4.4625L7.41305 4.91089V4.37494L7.79371 3.99421ZM6.54187 5.57551C6.54789 5.35705 6.6363 5.15162 6.79085 4.99711L6.95494 4.83301V5.36892L6.53602 5.78785L6.54187 5.57551ZM11.4917 8.41665L4.02127 15.887L0.552928 12.4187L8.02334 4.94831L9.15499 6.07992L8.8984 6.33651L8.05573 5.4938C7.9663 5.40437 7.82126 5.40437 7.73183 5.4938L1.09846 12.1272C1.00899 12.2166 1.00899 12.3616 1.09846 12.4511L3.98868 15.3413C4.0334 15.386 4.09203 15.4084 4.15063 15.4084C4.20922 15.4084 4.26786 15.386 4.31257 15.3413L10.9459 8.70795C11.0353 8.61849 11.0353 8.47349 10.9459 8.38406L10.5095 7.94759L10.7661 7.69103L11.4917 8.41665Z" fill="#EF9737"/>
<path d="M6.77458 9.66782C6.13423 9.02747 5.30244 8.85601 4.88098 9.27747C4.45952 9.69893 4.63098 10.5307 5.27133 11.1711C5.67496 11.5747 6.1546 11.792 6.55964 11.792C6.7972 11.792 7.00915 11.7172 7.16497 11.5614C7.38153 11.3449 7.44908 11.0177 7.35521 10.6402C7.27156 10.3039 7.06535 9.95859 6.77458 9.66782ZM6.84104 11.2375C6.63875 11.4398 6.07733 11.3293 5.59526 10.8472C5.11316 10.3651 5.00262 9.80369 5.20491 9.60139C5.26844 9.53786 5.36738 9.5052 5.48821 9.5052C5.75202 9.5052 6.12003 9.66109 6.45073 9.99178C6.68011 10.2212 6.84777 10.4978 6.9107 10.7508C6.96345 10.963 6.93808 11.1405 6.84104 11.2375Z" fill="#EF9737"/>
</svg>
